{"title":"Sherlock.Holmes.2.A.Game.Of.Shadows.2011.R6Rip.XviD.AC3-TODE","uid":7176054,"size":633787005,"categoryP":"video","categoryS":"movies","magnet":"?xt=urn:btih:be68912ce931e0804ea7c1c971a9c5e65e36aaea&amp;dn=Sherlock.Holmes.2.A.Game.Of.Shadows.2011.R6Rip.XviD.AC3-TODE&amp;tr=udp%3A%2F%2Ftracker.openbittorrent.com%3A80&amp;tr=udp%3A%2F%2Fopen.demonii.com%3A1337&amp;tr=udp%3A%2F%2Ftracker.coppersurfer.tk%3A6969&amp;tr=udp%3A%2F%2Fexodus.desync.com%3A6969","seeders":0,"leechers":0,"uploader":"TvTeam","files":6,"time":1334119440,"description":". \n &lt;a href=&quot;\nhttp://www.torrenting.com&quot; rel=&quot;nofollow&quot; target=&quot;_NEW&quot;&gt;\nhttp://www.torrenting.com&lt;/a&gt;          :     Once &amp; For all ;)\n\n\n               www . Torrenting . Com \n\n(((((((((((((= Enjoy No RAR releases =))))))))))))))))))))\n\n\n...................................NFO:....................................\n\n.Format                                   : AVI\nFormat/Info                              : Audio Video Interleave\nFile size                                : 604 MiB\nDuration                                 : 2h 0mn\nOverall bit rate                         : 698 Kbps\nWriting application                      : VirtualDubMod 1.5.10.2 (build 2542/release)\nWriting library                          : VirtualDub build 32842/release\n\nVideo\nID                                       : 0\nFormat                                   : MPEG-4 Visual\nFormat profile                           : Advanced Simple@L5\nFormat settings, BVOP                    : 2\nFormat settings, QPel                    : No\nFormat settings, GMC                     : No warppoints\nFormat settings, Matrix                  : Default (H.263)\nMuxing mode                              : Packed bitstream\nCodec ID                                 : XVID\nCodec ID/Hint                            : XviD\nDuration                                 : 2h 0mn\nBit rate                                 : 465 Kbps\nWidth                                    : 720 pixels\nHeight                                   : 292 pixels\nDisplay aspect ratio                     : 2.466\nFrame rate                               : 25.000 fps\nColor space                              : YUV\nChroma subsampling                       : 4:2:0\nBit depth                                : 8 bits\nScan type                                : Progressive\nCompression mode                         : Lossy\nBits/(Pixel*Frame)                       : 0.088\nStream size                              : 402 MiB (67%)\nWriting library                          : XviD 62\n\nAudio\nID                                       : 1\nFormat                                   : AC-3\nFormat/Info                              : Audio Coding 3\nFormat profile                           : Dolby Digital\nMode extension                           : CM (complete main)\nCodec ID                                 : 2000\nDuration                                 : 2h 0mn\nBit rate mode                            : Constant\nBit rate                                 : 224 Kbps\nChannel(s)                               : 2 channels\nChannel positions                        : Front: L R\nSampling rate                            : 48.0 KHz\nBit depth                                : 16 bits\nCompression mode                         : Lossy\nStream size                              : 194 MiB (32%)\nAlignment                                : Aligned on interleaves\nInterleave, duration                     : 40 ms (1.00 video frame)\nInterleave, preload duration             : 512 ms","torrent":{"xt":"urn:btih:be68912ce931e0804ea7c1c971a9c5e65e36aaea","amp;dn":"Sherlock.Holmes.2.A.Game.Of.Shadows.2011.R6Rip.XviD.AC3-TODE","amp;tr":["udp%3A%2F%2Ftracker.openbittorrent.com%3A80","udp%3A%2F%2Fopen.demonii.com%3A1337","udp%3A%2F%2Ftracker.coppersurfer.tk%3A6969","udp%3A%2F%2Fexodus.desync.com%3A6969"],"infoHash":"be68912ce931e0804ea7c1c971a9c5e65e36aaea","infoHashBuffer":{"type":"Buffer","data":[190,104,145,44,233,49,224,128,78,167,193,201,113,169,197,230,94,54,170,234]},"announce":[],"urlList":[]}}